<svg width="844" height="751" viewBox="0 0 844 751" fill="none" xmlns="http://www.w3.org/2000/svg">
<path fill-rule="evenodd" clip-rule="evenodd" d="M309 465.203C272.611 403.738 295.047 323.156 359.109 285.222C423.175 247.293 504.61 266.381 540.999 327.845C577.393 389.316 554.958 469.886 490.896 507.821C426.83 545.75 345.39 526.667 309 465.203Z" fill="#D8FE8B"/>
<path fill-rule="evenodd" clip-rule="evenodd" d="M509.577 97H448.293L522.712 164.579L387.68 97H326.396L400.813 189.234L265.782 97H204.5L278.025 217.879L204.5 538H265.782L400.813 200.737L326.396 538H387.68L522.712 176.082L448.293 538H509.577L645.5 147.332L509.577 97Z" fill="#AAA3F9"/>
<path fill-rule="evenodd" clip-rule="evenodd" d="M22.2427 245.588C-22.4632 170.082 5.10072 71.0925 83.7989 24.5002C162.503 -22.0972 262.538 1.34059 307.243 76.8469C351.954 152.359 324.396 251.343 245.692 297.94C166.994 344.532 66.9537 321.1 22.2427 245.588Z" fill="#F9DE59"/>
<path fill-rule="evenodd" clip-rule="evenodd" d="M483.434 699.649C453.63 649.311 472.006 583.317 524.473 552.255C576.943 521.19 643.634 536.815 673.438 587.153C703.246 637.496 684.873 703.486 632.403 734.551C579.937 765.613 513.242 749.991 483.434 699.649Z" fill="#F9DE59"/>
<path fill-rule="evenodd" clip-rule="evenodd" d="M469.212 175.199C452.554 147.066 462.828 110.193 492.151 92.8304C521.459 75.473 558.729 84.2031 575.387 112.336C592.039 140.463 581.776 177.337 552.458 194.705C523.145 212.057 485.87 203.332 469.212 175.199Z" fill="#D8FE8B"/>
<path fill-rule="evenodd" clip-rule="evenodd" d="M640.399 474.781C634.78 465.283 638.249 452.827 648.145 446.965C658.047 441.099 670.637 444.052 676.261 453.556C681.892 463.044 678.417 475.505 668.521 481.367C658.609 487.233 646.03 484.28 640.399 474.781Z" fill="#F9DE59"/>
<path fill-rule="evenodd" clip-rule="evenodd" d="M791.561 547.681C783.985 534.88 788.653 518.105 801.994 510.206C815.336 502.308 832.29 506.284 839.872 519.08C847.438 531.88 842.769 548.655 829.434 556.549C816.097 564.453 799.143 560.477 791.561 547.681Z" fill="#D8FE8B"/>
<path fill-rule="evenodd" clip-rule="evenodd" d="M187.816 422.613C180.24 409.811 184.908 393.037 198.249 385.138C211.591 377.239 228.544 381.215 236.127 394.011C243.692 406.812 239.024 423.587 225.688 431.48C212.352 439.385 195.398 435.409 187.816 422.613Z" fill="#F9DE59"/>
<circle cx="445.443" cy="145.222" r="4" fill="#A8C0F2"/>
<path fill-rule="evenodd" clip-rule="evenodd" d="M470.354 176.856C453.696 148.723 463.97 111.85 493.294 94.4877C522.601 77.1302 559.872 85.8604 576.529 113.993C593.182 142.121 582.919 178.994 553.6 196.362C524.288 213.714 487.012 204.989 470.354 176.856Z" fill="#D8FE8B"/>
<circle cx="585.443" cy="84.4268" r="6" fill="black" fill-opacity="0.24"/>
<circle cx="585.443" cy="84.4268" r="4" fill="white"/>
<circle cx="585.443" cy="206.427" r="6" fill="black" fill-opacity="0.24"/>
<circle cx="585.443" cy="206.427" r="4" fill="white"/>
<circle cx="461.443" cy="206.427" r="6" fill="black" fill-opacity="0.24"/>
<circle cx="461.443" cy="206.427" r="4" fill="white"/>
<circle cx="461.443" cy="84.4268" r="6" fill="black" fill-opacity="0.24"/>
<circle cx="461.443" cy="84.4268" r="4" fill="white"/>
<rect x="461.943" y="84.9268" width="123" height="121" stroke="#4177F6"/>
<circle cx="523.443" cy="68.6777" r="4" fill="#A8C0F2"/>
<circle cx="523.443" cy="221.766" r="4" fill="#A8C0F2"/>
<circle cx="601.443" cy="145.222" r="4" fill="#A8C0F2"/>
<g clip-path="url(#clip0_9456_164791)">
<path d="M446.612 240.452C447.338 243.306 445.611 246.209 442.757 246.934C439.902 247.66 436.999 245.934 436.274 243.079C435.549 240.224 437.275 237.322 440.129 236.596C440.576 236.483 441.023 236.429 441.463 236.431M448.776 241.765L446.776 239.765L444.776 241.765" stroke="#040C33" stroke-width="1.5" stroke-linecap="round"/>
</g>
<defs>
<clipPath id="clip0_9456_164791">
<rect width="16" height="16" fill="white" transform="translate(433.443 233.766)"/>
</clipPath>
</defs>
</svg>
